<?xml version="1.0" encoding="iso-8859-1"?>
<!-- Generator: Adobe Illustrator 19.1.0, SVG Export Plug-In . SVG Version: 6.00 Build 0)  -->
<svg version="1.1" id="Capa_1" xmlns="http://www.w3.org/2000/svg" xmlns:xlink="http://www.w3.org/1999/xlink" x="0px" y="0px"
	 viewBox="0 0 129.21 129.21" style="enable-background:new 0 0 129.21 129.21;" xml:space="preserve">
<g>
	<path d="M35.154,67.389"/>
	<path d="M45.559,72.157c-2.381,0-4.318-1.937-4.318-4.318c0-2.381,1.938-4.318,4.318-4.318c2.382,0,4.319,1.937,4.319,4.318
		C49.878,70.22,47.941,72.157,45.559,72.157z M45.559,66.521c-0.727,0-1.318,0.591-1.318,1.318c0,0.727,0.592,1.318,1.318,1.318
		c0.728,0,1.319-0.591,1.319-1.318C46.878,67.112,46.287,66.521,45.559,66.521z"/>
	<path d="M64.573,128.572h-2.974c-5.09,0-8.716-1.191-11.084-3.642c-2.198-2.276-3.193-5.551-3.04-10.014
		c0.13-3.795,0.386-5.807,2.283-9.053l-0.55-1.183c-6.18-13.954-8.47-26.401-9.195-35.496c-6.074,7.271-14.766,6.903-15.167,6.883
		c-0.001,0-0.004,0-0.006,0c-9.213,0-12.366-7.52-12.496-7.84c-0.292-0.722,0.016-1.548,0.711-1.901
		c0.229-0.116,22.941-11.645,25.538-12.943c1.533-0.767,1.96-1.346,2.035-1.465c0.021-0.066,0.046-0.13,0.075-0.193l1.398-2.972
		c0.195-0.414,0.568-0.717,1.014-0.821c0.449-0.104,0.915-0.001,1.274,0.284c0.079,0.057,2.396,1.716,6.688,0.002
		c4.396-1.758,6.674-3.94,6.926-10.988c0.03-0.829,0.73-1.473,1.553-1.445c0.828,0.03,1.475,0.725,1.445,1.553
		c-0.269,7.5-2.656,11.205-8.811,13.666c-3.669,1.468-6.417,1.017-8.028,0.419l-0.694,1.474c-0.222,0.667-0.979,1.893-3.533,3.17
		c-2.215,1.107-19.157,9.705-24.146,12.236c1.146,1.746,3.887,4.767,9.134,4.767c0.001,0,0.001,0,0.002,0
		c0.439,0.018,9.113,0.334,14.159-7.703l0.815-1.701c0.299-0.625,0.986-0.963,1.665-0.819c0.678,0.145,1.168,0.734,1.187,1.426
		c0.245,8.956,2.038,23.021,9.188,39.168l0.876,1.882c0.213,0.459,0.181,0.995-0.087,1.424c-1.926,3.098-2.129,4.559-2.256,8.272
		c-0.124,3.606,0.596,6.167,2.2,7.826c1.748,1.809,4.751,2.727,8.926,2.727h2.974c0.828,0,1.5,0.671,1.5,1.5
		S65.401,128.572,64.573,128.572z"/>
	<path d="M14.35,68.989c-0.56,0-1.097-0.314-1.354-0.853c-0.357-0.747-0.043-1.642,0.704-2c0.371-0.178,9.162-4.333,16.013-2.362
		c6.936,1.995,11.304-1.424,11.346-1.459c0.637-0.53,1.582-0.443,2.112,0.193c0.53,0.637,0.444,1.583-0.192,2.113
		c-1.881,1.565-7.248,4.006-14.095,2.037c-5.75-1.651-13.807,2.146-13.887,2.185C14.787,68.941,14.566,68.989,14.35,68.989z"/>
	<path d="M45.473,85.338c-0.125,0-0.252-0.016-0.379-0.049c-0.802-0.209-1.282-1.028-1.073-1.83
		c0.11-0.427,2.731-10.479,3.522-12.86c0.435-1.299-0.57-3.04-0.993-3.601c-0.498-0.66-0.37-1.6,0.287-2.1
		c0.658-0.501,1.594-0.376,2.097,0.278c0.255,0.333,2.467,3.343,1.456,6.371c-0.76,2.286-3.439,12.564-3.467,12.667
		C46.748,84.891,46.139,85.338,45.473,85.338z"/>
	<path d="M64.573,123.665c-5.288,0-10.809-0.672-11.663-5.654c-0.572-3.334-0.227-6.716,0.882-8.615
		c0.988-1.694,3.41-2.578,5.513-2.01c2.186,0.591,3.49,2.507,3.49,5.126c0,0.863,0.183,1.495,0.514,1.779
		c0.382,0.328,1.003,0.241,1.008,0.241c0.806-0.13,1.581,0.419,1.721,1.225c0.139,0.806-0.379,1.573-1.183,1.726
		c-0.2,0.037-1.987,0.337-3.447-0.871c-1.069-0.885-1.612-2.265-1.612-4.1c0-1.251-0.428-2.001-1.272-2.229
		c-0.863-0.234-1.858,0.144-2.139,0.625c-0.634,1.086-1.014,3.7-0.517,6.597c0.281,1.642,1.531,3.162,8.706,3.162
		c0.828,0,1.5,0.671,1.5,1.5S65.401,123.665,64.573,123.665z"/>
	<path d="M85.75,50.893c-0.226,0-0.455-0.051-0.67-0.159c-0.593-0.296-0.903-0.932-0.814-1.554l-0.004-0.039
		c-0.642-5.931,8.261-8.555,16.089-10.178c18.609-3.86,25.859-10.066,25.859-22.136c0-3.4-0.798-5.959-1.904-7.874
		c0.245,1.456,0.357,3.203,0.274,5.311c-0.458,11.629-11.616,14.366-15.024,14.928c-4.271,0.704-14.541,1.303-14.976,1.328
		c-19.689,1.547-23.48,7.649-23.517,7.711c-0.31,0.527-0.925,0.841-1.527,0.756c-5.701-0.828-9.733-0.023-9.774-0.016
		c-0.656,0.134-1.32-0.181-1.632-0.771c-0.02-0.032-3.811-6.134-23.531-7.683c-0.404-0.023-10.675-0.622-14.946-1.326
		C16.245,28.629,5.088,25.892,4.63,14.264c-0.084-2.133,0.032-3.897,0.283-5.363C3.802,10.818,3,13.392,3,16.827
		c0,12.069,7.25,18.275,25.858,22.136c14.903,3.091,16.427,7.063,16.09,10.178l-0.004,0.039c0.089,0.622-0.222,1.257-0.814,1.554
		c-0.737,0.372-1.641,0.072-2.013-0.67c-0.235-0.471-0.187-0.919-0.151-1.246c0.375-3.466-8.433-5.822-13.717-6.918
		C3.422,36.75,0,26.806,0,16.827C0,3.479,10.647,0.709,10.754,0.683c0.66-0.165,1.349,0.141,1.675,0.739
		c0.326,0.598,0.208,1.341-0.288,1.809c-0.293,0.276-0.625,0.501-0.977,0.739C9.638,5.004,7.329,6.568,7.628,14.145
		c0.358,9.105,8.871,11.485,12.514,12.086c4.116,0.678,14.557,1.287,14.662,1.293c17.575,1.38,23.534,6.233,25.327,8.351
		c1.535-0.208,4.761-0.487,8.931,0.022c1.77-2.106,7.705-6.987,25.315-8.371c0.136-0.008,10.576-0.617,14.691-1.295
		c3.644-0.601,12.156-2.98,12.515-12.086c0.299-7.578-2.011-9.141-3.538-10.176c-0.352-0.238-0.684-0.463-0.977-0.739
		c-0.495-0.468-0.614-1.21-0.288-1.809c0.325-0.597,1.014-0.901,1.675-0.739c0.108,0.026,10.756,2.796,10.756,16.144
		c0,16.885-13.577,22.03-28.25,25.073c-5.283,1.096-14.091,3.452-13.716,6.918c0.035,0.327,0.084,0.774-0.151,1.246
		C86.83,50.589,86.3,50.893,85.75,50.893z"/>
	<path d="M94.057,67.389"/>
	<path d="M83.652,72.157c-2.382,0-4.319-1.937-4.319-4.318c0-2.381,1.938-4.318,4.319-4.318c2.381,0,4.318,1.937,4.318,4.318
		C87.97,70.22,86.033,72.157,83.652,72.157z M83.652,66.521c-0.728,0-1.319,0.591-1.319,1.318c0,0.727,0.592,1.318,1.319,1.318
		c0.727,0,1.318-0.591,1.318-1.318C84.97,67.112,84.378,66.521,83.652,66.521z"/>
	<path d="M67.612,128.572h-2.974c-0.828,0-1.5-0.671-1.5-1.5s0.672-1.5,1.5-1.5h2.974c4.175,0,7.178-0.917,8.926-2.727
		c1.604-1.66,2.324-4.22,2.2-7.826c-0.127-3.713-0.33-5.174-2.256-8.272c-0.268-0.43-0.3-0.965-0.087-1.424l0.887-1.907
		c7.14-16.122,8.933-30.187,9.178-39.143c0.019-0.692,0.509-1.282,1.187-1.426c0.68-0.142,1.366,0.194,1.665,0.819l0.815,1.701
		c5.047,8.039,13.72,7.722,14.083,7.705c5.303-0.001,8.058-3.02,9.21-4.77c-4.991-2.533-21.929-11.128-24.144-12.235
		c-2.555-1.278-3.312-2.504-3.533-3.17l-0.694-1.475c-1.61,0.597-4.358,1.049-8.028-0.419c-6.154-2.461-8.542-6.165-8.811-13.666
		c-0.029-0.828,0.617-1.523,1.445-1.553c0.812-0.024,1.522,0.617,1.553,1.445c0.252,7.047,2.53,9.229,6.926,10.988
		c4.321,1.727,6.666,0.016,6.688-0.002c0.358-0.285,0.826-0.389,1.274-0.284c0.445,0.104,0.818,0.407,1.014,0.821l1.398,2.972
		c0.029,0.062,0.055,0.127,0.075,0.193c0.075,0.119,0.502,0.698,2.035,1.465c2.597,1.298,25.309,12.826,25.537,12.942
		c0.695,0.353,1.004,1.179,0.712,1.901c-0.13,0.32-3.286,7.841-12.58,7.842c-0.001,0-0.001,0-0.002,0
		c-0.332,0.015-9.014,0.386-15.087-6.884c-0.725,9.094-3.014,21.537-9.185,35.47l-0.562,1.208c1.898,3.246,2.154,5.258,2.284,9.053
		c0.153,4.462-0.842,7.738-3.04,10.014C76.328,127.38,72.702,128.572,67.612,128.572z"/>
	<path d="M114.861,68.989c-0.217,0-0.438-0.047-0.646-0.147c-0.081-0.039-8.14-3.838-13.887-2.185
		c-6.85,1.972-12.214-0.471-14.095-2.037c-0.637-0.53-0.723-1.476-0.192-2.113c0.528-0.636,1.476-0.724,2.112-0.193
		c0.042,0.035,4.412,3.454,11.345,1.459c6.851-1.97,15.642,2.184,16.013,2.362c0.747,0.358,1.062,1.253,0.704,2
		C115.958,68.674,115.42,68.989,114.861,68.989z"/>
	<path d="M83.738,85.338c-0.666,0-1.274-0.447-1.45-1.123c-0.027-0.104-2.707-10.382-3.468-12.669
		c-1.01-3.026,1.202-6.035,1.457-6.369c0.505-0.657,1.445-0.781,2.104-0.277c0.656,0.503,0.781,1.442,0.28,2.1
		c-0.425,0.563-1.427,2.302-0.994,3.598c0.792,2.382,3.413,12.435,3.523,12.862c0.209,0.801-0.271,1.621-1.073,1.83
		C83.99,85.322,83.863,85.338,83.738,85.338z"/>
	<path d="M64.638,123.665c-0.828,0-1.5-0.671-1.5-1.5s0.672-1.5,1.5-1.5c7.175,0,8.425-1.52,8.706-3.161
		c0.497-2.897,0.117-5.511-0.517-6.597c-0.28-0.481-1.273-0.861-2.139-0.625c-0.845,0.228-1.272,0.978-1.272,2.229
		c0,1.882-0.553,3.282-1.644,4.162c-1.471,1.187-3.256,0.843-3.451,0.802c-0.811-0.175-1.325-0.974-1.149-1.783
		c0.173-0.804,0.964-1.313,1.761-1.154c0.039,0.007,0.613,0.089,0.967-0.208c0.333-0.278,0.517-0.924,0.517-1.818
		c0-2.619,1.305-4.535,3.49-5.126c2.103-0.568,4.523,0.314,5.513,2.01c1.108,1.899,1.454,5.281,0.882,8.615
		C75.447,122.994,69.926,123.665,64.638,123.665z"/>
</g>
<g>
</g>
<g>
</g>
<g>
</g>
<g>
</g>
<g>
</g>
<g>
</g>
<g>
</g>
<g>
</g>
<g>
</g>
<g>
</g>
<g>
</g>
<g>
</g>
<g>
</g>
<g>
</g>
<g>
</g>
</svg>
