<?xml version="1.0" encoding="UTF-8"?>
<svg id="Layer_1" data-name="Layer 1" xmlns="http://www.w3.org/2000/svg" viewBox="0 0 100 100">
  <g id="Layer_1-2" data-name="Layer 1">
    <rect width="100" height="100" style="fill: #fff;"/>
    <rect x="4" y="4" width="92" height="92" style="fill: #898989;"/>
    <g id="Layer_2" data-name="Layer 2">
      <g>
        <path d="m41.06,6.9c8.18,2.01,12.06,8.28,9.52,16.31-1.06,3.35-3.04,6.5-5.04,9.44-2.2,3.24-4.21,6.42-3.96,10.52.14,2.26.75,2.54,2.85,1.9,1.98-.61,4.15-1.47,6.08-1.18,4.85.73,9.62,2.03,14.41,3.16.61.14,1.15.61,2.15,1.17-1.25.12-2.02.19-2.79.27,6.05,1.45,11.19,4.11,14.13,10.27-.89-.33-1.61-.59-1.75-.64,1.74,2.88,3.67,6.07,5.6,9.26-.22.17-.45.34-.67.51-.63-.42-1.26-.83-2.33-1.54,1.07,2.52,2.05,4.59,2.82,6.73.48,1.32.77,2.74.91,4.15.05.45-.66.97-1.29,1.83.05.28.21,1.13.47,2.53-1.06-.87-1.71-1.4-2.57-2.1.13.84.23,1.5.33,2.15-.13.12-.26.23-.39.35-2.87-3.21-5.74-6.42-8.62-9.64-.07.04-.15.08-.22.12.33.86.65,1.73,1.19,3.15-1.87-1.34-3.28-2.35-4.98-3.56.18.81.29,1.3.48,2.13-1.45-1.05-2.61-1.89-3.88-2.81-.17.37-.33.71-.71,1.55-4.09-2.63-8.32-4.94-12.08-7.86-6.21-4.82-5.92-10.5.41-15.16-5.26.39-8.47,6.48-5.56,11.5,1.59,2.75,4.14,5.17,6.74,7.08,5.8,4.25,12.49,6.83,19.21,9.3,1.65.61,3.08,1.83,4.43,3.2-6.14-1.25-12.14-2.18-18.59-.62-.24,3.14-.65,6.49-.7,9.84-.03,1.78-.61,2.43-2.3,2.52-1.5.08-3.02.22-4.47.6-1.99.52-3.61.06-5.31-1.35,2.19-.43,4.13-.86,6.1-1.19,1.82-.3,2.75-1.12,2.74-3.14,0-2.62.31-5.24.44-7.21-4.59-2.84-9.1-5.03-12.89-8.12-5.86-4.77-9.28-11.35-11.36-18.56-.4-1.39-.44-3.06-.09-4.46,1.17-4.66,2.33-9.35,4.03-13.83.98-2.58,2.99-4.77,4.56-7.12.25-.37.62-.66.91-1,3.52-4.13,2.96-6.62-1.95-8.74-.21-.09-.42-.17-.63-.24-4.63-1.65-3.62-3.74-.71-6.43.93-.86,2.16-1.4,3.08-2.26.86-.81,1.5-1.84,2.25-2.78Z" style="fill: #fff;"/>
        <path d="m15.95,50.12c-.12-1.29-.45-2.08-.19-2.57,5.3-10.01,10.66-19.98,15.96-29.86,2.49,1.07,4.43,1.99,6.44,2.74,1.54.57,2.12,1.68,1.39,2.96-.85,1.5-2.08,2.82-3.3,4.06-1.14,1.16-2.67,1.95-3.72,3.17-5.41,6.25-10.72,12.58-16.58,19.5Z" style="fill: #fff;"/>
        <path d="m63.07,92h-4.97c-.1-.43-.25-.71-.22-.98.29-2.92.5-5.85.99-8.73.12-.67,1.21-1.18,2.18-2.05.95,4.28-.75,8.2,2.02,11.76Z" style="fill: #fff;"/>
      </g>
    </g>
    <circle cx="40" cy="15" r="1" style="fill: #898989;"/>
  </g>
  <g id="Layer_1_copy" data-name="Layer 1 copy">
    <rect width="100" height="100" style="fill: #fff;"/>
    <rect x="4" y="4" width="92" height="92" style="fill: #898989;"/>
    <path d="m4.69,80.11c2.68-1.06,5.47-.74,8.21-.91,2.73-.17,5.21-1.04,7.82-1.89,4.73-1.55,4.39-4.66,4.43-8.13.07-5.21-1.67-9.94-3.95-14.49-3.31-6.6-5.4-13.43-4.66-20.93.64-6.44,2-12.66,5.69-18.12,5.72-8.46,16.66-9.67,24.13-2.68.81.76,1.72,1.31,2.72,1.8,3.54,1.75,3.75,4.09.62,6.53-2.24,1.74-4.87,2.2-7.62,2.23-4.23.04-6.01,2.36-5.09,6.64,1.45,6.79,7.91,11.45,15.03,10.77,4.13-.39,8-1.99,12.04-2.8,1.57-.31,3.13-.68,4.71-.88,6.71-.87,11.83,1.76,15.58,7.27,5.71,8.39,7.9,17.26,3.5,26.94-.49,1.08-.1,1.47.72,1.97,1.66,1.01,3.22,2.17,4.5,3.66,2.95,3.43,2.54,6.6-1.29,9.14-3.49,2.32-7.47,3.51-11.51,4.4-10.17,2.22-19.95,1.36-29-4.21-1.93-1.19-3.91-2.4-5.02-4.5-.61-1.15-1.62-.7-2.46-.7-12.32-.09-24.64-.24-36.94-.94-.73-.05-1.44-.12-2.16-.17Zm47.92-16.45c.46,2.02-.64,2.7-2.21,3.06-1.47.34-2.94.69-4.4,1.04-.82.2-1.49.37-1.77,1.46-.69,2.68-1.61,5.3-2.41,7.95-.15.51-.54,1.38.36,1.41,3.1.09,6.46.93,9.21-.33,2.12-.97,4.19-2.31,6.55-3.29-2.1-3.66-3.87-7.35-5.33-11.3Zm-5.11,17.34c10.4,5.26,27.69,6.14,34.76,0h-34.76Zm-14.11-13.86c-.47,3.95-1.38,7-2.39,10.03-.17.52-.68,1.1.15,1.5.88.42,3.15-1.02,3.13-2.07-.04-2.93.2-5.89-.89-9.46Zm46.69,9.09c.28,2.4,1.42,3.54,3.85,3.08.62-.12,1.21-.16,1.36-.85.16-.72-.4-1.06-.94-1.31-1.32-.6-2.69-.96-4.27-.92ZM41.74,13.42c-.83.2-1.82.55-1.85,1.41-.04,1.05,1.07,1.09,1.88,1.11.9.02,1.78-.36,1.7-1.35-.06-.82-.93-1.07-1.73-1.17Z" style="fill: #fff;"/>
  </g>
  <g id="Layer_1_copy_2" data-name="Layer 1 copy 2">
    <rect width="100" height="100" style="fill: #fff;"/>
    <rect x="4" y="4" width="92" height="92" style="fill: #898989;"/>
    <path d="m52.47,84.57c.13-.35.15-.61.29-.76,3.84-4.25,1.9-8.52.15-12.85-.72-1.78-1.1-3.69-1.68-5.53-.67-2.17-1.38-4.32-2.08-6.49-.2,0-.4.02-.6.02-.44.91-.98,1.78-1.31,2.73-1.97,5.61-4.48,11.06-5.13,17.08-.13,1.24-.12,2.83-2.11,2.83-.2,0-.45.37-.59.62-1.66,2.92-1.99,3.09-5.91,2.63,1.03-1.27,1.91-2.28,2.7-3.35,1.16-1.58,2.89-3.07,3.26-4.83,1.16-5.53,1.79-11.18,2.62-16.78.19-1.31-.4-2.05-1.48-2.92-2.01-1.6-3.67-3.63-5.49-5.48-1.18-1.2-2.35-2.43-3.59-3.57-.42-.39-1.13-.46-1.57-.84-1.92-1.65-3.55-3.85-5.73-4.89-2.17-1.03-4.88-.95-7.36-1.3-.77-.11-1.59-.19-2.35-.07-2.82.45-5.62,1-8.49,1.52-.38-6.82,2.65-10.26,8.75-10.54,2.65-.12,4.78-2.4,5.08-5.03.2-1.75.9-3.43,1.31-5.16.53-2.21,1-4.43,1.52-6.8.49,1.39,1.02,2.9,1.65,4.7.61-1.73,1.19-3.36,1.87-5.3,1.93,5.35-2.71,9.45-2.06,14.03,1.3-.37,2.56-.73,3.83-1.09-.04.33-.08.67-.12,1.04,1.23-.11,2.5-.22,3.78-.34l.27.48c-1.06,1.2-2.13,2.4-3.37,3.8,2.74,2.91,6.08,4.99,10.18,5.63.85.13,1.88-.41,2.73-.84,2.73-1.38,5.58-1.75,8.65-1.86,6.86-.26,13.77-.56,20.55-1.58,9.1-1.37,16.17,2.14,22.6,7.91,1.92,1.73,1.57,4.08,1.71,6.28.1,1.62.02,3.24-.49,5.23-.76-1.28-1.77-2.48-2.22-3.86-.48-1.49-.43-3.14-.66-5.17-1.21,3.83-2.22,7.2-3.34,10.53-.91,2.69-.31,4.96,1.94,6.56,2.98,2.11,3.76,4.71,3.34,8.32-.39,3.37.19,6.85.32,10.28.01.37-.08.74-.12,1.11-.2-.09-.4-.18-.6-.27-.52.9-1.13,1.77-1.54,2.72-1.04,2.44-2.99,1.18-5.28,1.48,7.32-8.93,5.72-16.23-3.42-22.67.32.9.39,1.47.69,1.86,1.54,2,.94,3.72-.25,5.71-1.67,2.81-2.89,5.89-4.4,8.8-.31.59-1.06.97-1.64,1.41-.33.25-1,.38-1.04.64-.57,3.5-3.15,2.32-5.14,2.51-.18-.2-.36-.4-.55-.6.82-.91,1.48-2.06,2.47-2.69,3.85-2.42,5.46-6.23,6.62-10.3.22-.79-.19-1.95-.67-2.72-1.81-2.91-3.76-5.73-5.63-8.54-1.72.05-3.45,3.56-4.73.15-4.67-.28-9.17-.54-14.05-.83,1.16,6.23-.64,12.46,2.82,18.02.65,1.04.88,2.38,1.1,3.62.1.54-.26,1.19-.51,1.75-.26.57-.8,1.05-.92,1.64-.5,2.64-1.58,3.22-4.58,2.21Z" style="fill: #fff;"/>
  </g>
  <g id="Layer_1_copy_3" data-name="Layer 1 copy 3">
    <rect width="100" height="100" style="fill: #fff;"/>
    <rect x="4" y="4" width="92" height="92" style="fill: #898989;"/>
    <g>
      <path d="m8.94,56.04c1.23,1.86,2.7,3.35,4.6,4.5-.97-1.21-1.98-2.31-2.81-3.54-1.5-2.22-2.68-4.61-2.73-7.36-.05-2.72,1.21-5.02,2.69-7.19,2.32-3.41,5.35-6.13,8.5-8.75,1.07-.89,2.02-1.91,3.04-2.88-.37-.53-.65-.95-1.02-1.49.38-.12.68-.26.98-.3,2.33-.29,4.67-.55,7-.84,1.01-.13,1.63.23,1.74,1.4-2.15.28-4.25.89-6.1,2.17.85-.31,1.69-.67,2.57-.9,1.08-.29,2.19-.47,3.29-.72.43-.1.67.02.92.41,1.32,2,3.08,3.36,5.56,3.46.87.04,1.75-.19,2.65-.44-3.17.17-5.71-.91-7.71-3.56h3.45c0-.09,0-.17.02-.26-.99-.07-1.98-.24-2.97-.19-.9.05-1.29-.37-1.6-1.29,1.33.25,2.54.48,3.75.7-4.52-1.83-9.04-1.49-13.67.06-.15-.53-.29-1.03-.46-1.63,4.56-.92,9.02-1.32,13.52.21-2.04-1.65-7.34-1.87-13.45-.6-.21-1.39.11-2.7.6-3.97.26-.66.45-1.27.07-1.94-.06-.11-.06-.27-.08-.4-.28-1.9.99-3.01,2.71-2.2,1.02.48,1.8.38,2.8.06,3.32-1.06,6.5-.38,9.57,1.05,1.31.61,2.62,1.25,3.89,1.94,2.98,1.63,4.47,4.34,5.24,7.51.26,1.08.54,2.18.58,3.29.03.59-.42,1.2-.67,1.85,1.96.98,3.67,2.23,4.65,4.26-1.25-1.69-2.81-3-4.65-3.99-1.24,1.24-2.62,1.55-4.44-.17.44,1.15,1.25,1.7,2.38,2.09-1.07.46-2.11.99-3.21,1.35-1.03.34-1.78.96-2.33,1.84-2.08,3.38-2.51,7.05-.94,10.62,2.01,4.58,1.61,8.87-.56,13.18-.03.07-.05.14,0,.23,2.06-2.94,3.22-6.13,2.56-10.05.29.37.44.54.57.72,2.25,3.12,4.59,6.15,7.75,8.42,1.82,1.31,3.75,1.86,5.95,1.01,1.73-.67,2.18-1.83,1.06-3.31-.74-.97-1.66-1.81-2.54-2.67-.7-.68-1.54-1.34-1.09-2.43.44-1.06,1.5-1.07,2.48-1.01,1.75.11,3.23.91,4.48,2.05,1.92,1.75,4.06,3.15,6.36,4.33.51.26,1.02.55,1.49.87,1.27.88,1.56,1.77.96,3.19-.9,2.14-2.15,4-4.36,5.02.03.06.06.12.08.19.61-.2,1.24-.34,1.81-.61,1.8-.85,2.92-2.33,3.78-4.07.24-.48.63-.95,1.07-1.26,2.08-1.51,3.97-3.19,5.52-5.24,4-5.28,4.06-10.7.17-16.05-2.59-3.56-5.81-6.55-8.97-9.58-3.79-3.64-7.62-7.25-11.29-11.02-2.11-2.17-3.77-4.71-4.42-7.76-.44-2.06-.12-4.02.99-5.93.09.2.16.32.2.46.82,3.31,2.38,6.28,4.68,8.75,1.41,1.52,3.22,2.7,4.94,3.91,5.09,3.57,10.32,6.94,15.3,10.66,4.76,3.55,8.94,7.77,12.04,12.9,5.95,9.82,5.36,19.52-1.04,28.83-5.93,8.62-14.4,13.49-24.56,15.55-4.77.97-9.58.97-14.41.22,3.05-.44,5.94-1.25,8.24-3.47-.48.26-.95.54-1.45.76-1.95.89-4.02,1.27-6.14,1.36-4.86.2-9.53-.84-14.13-2.28-4.47-1.4-8.77-3.13-12.53-6-7.08-5.4-11-12.64-12.54-21.27-.16-.91-.25-1.84-.37-2.76Zm42.02,22.48c0,.05-.02.1-.04.15.64.03,1.29.13,1.93.08,1.5-.12,2.22-1.09,1.69-2.49-.42-1.13-1.15-2.16-1.78-3.2-.45-.75-1-1.44-1.44-2.19-.34-.58-.39-1.21.09-1.76.49-.56,1.11-.44,1.66-.18.74.34,1.47.73,2.14,1.2.87.61,1.71,1.28,2.5,2,2.12,1.92,4.46,3.32,7.36,3.7,1.47.19,1.99,1.21,1.4,2.57-.29.66-.72,1.3-1.2,1.84-.62.71-1.35,1.32-2.03,1.98.09.09.18.18.26.26,1.06-1.07,2.25-2.04,3.16-3.22,1.51-1.97.73-3.88-1.72-4.36-2.07-.41-3.89-1.28-5.47-2.66-.66-.58-1.32-1.16-1.99-1.71-1.4-1.14-2.79-2.32-4.61-2.75-1.74-.41-3.2,1.14-2.65,2.84.19.59.54,1.14.9,1.64.65.91,1.4,1.76,2.05,2.67.36.51.66,1.08.86,1.67.32.96-.04,1.55-1.03,1.74-.68.11-1.36.12-2.04.18Zm-16.45-13.28c-.69.34-1.34.73-2.04,1.01-1.29.52-2.61.62-3.91.01-1.48-.69-1.89-2.02-1-3.38.41-.63.97-1.18,1.5-1.72,2.01-2.02,1.77-5.9.68-7.81-.01.05-.04.11-.04.15.04.33.09.65.13.97.27,2.59-.04,4.97-2.26,6.74-.42.33-.74.81-1.02,1.27-1.05,1.75-.46,3.63,1.39,4.53,2.12,1.05,5.16.24,6.57-1.77Zm-19.3-4.76c1.47-.28,2.4-1.17,2.3-2.56-.13-1.86-.47-3.73-.87-5.56-.54-2.47-.38-4.77,1.16-6.87.02-.02-.02-.09-.06-.21-.24.22-.48.4-.67.61-1.61,1.76-2,3.85-1.57,6.11.3,1.58.73,3.14,1.1,4.71.36,1.54.18,2.9-1.39,3.77Zm27.25-29.1c1.01,0,1.55-.44,1.49-1.21-.11-1.41-2.13-2.78-3.49-2.37-.74.22-1.08.75-.89,1.41.3,1.05,1.79,2.18,2.89,2.17Zm-7.05-6.68c-.34-1.86-1.69-2.94-3.42-2.72-.21.03-.56.33-.55.47.09,1,.32,1.99,1.28,2.53.94.52,1.83.15,2.69-.28Z" style="fill: #fff;"/>
      <path d="m46.5,33.5c2.45.91,4.39,2.42,5.57,4.8-1.42-2.09-3.34-3.62-5.57-4.8Z" style="fill: #fff;"/>
      <path d="m53.2,36.77c-.92-.78-1.79-1.65-2.8-2.34s-2.14-1.18-3.14-1.71c1.53-.06,4.93,2.22,5.94,4.05Z" style="fill: #fff;"/>
    </g>
  </g>
  <g id="Layer_1_copy_5" data-name="Layer 1 copy 5">
    <rect width="100" height="100" style="fill: #fff;"/>
    <rect x="4" y="4" width="92" height="92" style="fill: #012ed4;"/>
    <g>
      <path d="m30.96,21.7c-4.05,1.18-6.13,5.25-9.94,6.82-.93.38-.6,1.21.02,1.78.78.72,1.77.71,2.77.76,2.12.12,5.33-1.14,5.99,1.25.72,2.62.34,5.88-1.66,8.4-1.37,1.73-2.83,3.37-2.59,5.9.16,1.68-1.54,1.26-2.46,1.53-4.2,1.2-5.43,5.05-2.6,8.49,2.89,3.52,5.84,7,8.78,10.49.87,1.04,1.83,1.98,3.59,2.44-.45-4.18-4.99-5.44-5.78-9.26,2.89,1.04,3.43,4.87,6.98,5.41-.47-4.21-5.77-5.25-5.64-9.44,3.15.59,5.4,1.98,7.49,4.78,4.75,6.38,12.37,8.21,19.58,10.33,1.78.53,3.04.8,3.55,2.94.7,2.94,3.41,4.33,5.95,5.06,6.69,1.92,12.01,5.35,15.74,11.39,1.2,1.95,3.23,3.82,6.21,3.02-.99-3.49-4.65-3.89-6.64-6.11-1.93-2.15-3.71-4.43-4.63-7.99,4.2,3.2,5.09,9.31,11.52,9.8-.98-1.97-1.7-3.33-3.32-4.2-3.53-1.89-5.57-5.12-7-8.69-.78-1.95-1.54-3.47-3.95-3.79-2.04-.27-2.51-1.81-1.72-3.61.73-1.67,1.61-3.27,2.44-4.93,2.05.62,2.29,4.63,5.85,2.79-4.32-2.93-7.21-7.23-13.03-7.91-9.78-1.13-16.51-6.83-23.02-14.38-5-5.8-4.01-12.36-6.67-18.19-.46-1.02.28-1.11,1.04-1.4,1.67-.64,2.25-2.13,2.53-3.79-.27-.02-.52-.12-.72-.05-1.4.48-3,2.38-4.15.62-.6-.92,1.23-2.6,2.35-3.46,3.85-2.98,6-6.98,7.34-11.58-2.86,3.41-4.55,7.94-9.15,9.66-1.67,1.74-3.98,2.82-5.05,5.12Z" style="fill: #fff;"/>
      <path d="m30.96,21.7c1.07-2.3,3.38-3.38,5.06-5.08,1.26-2.79,2.6-5.54,2.99-8.74-1.89,4.61-5.01,8.29-8.48,11.68-1.19,1.15-.54,1.6.43,2.14Z" style="fill: #fff;"/>
    </g>
    <ellipse cx="25.71" cy="26.81" rx="6.51" ry="3.03" transform="translate(-10.68 19.36) rotate(-34.62)" style="fill: #fff;"/>
  </g>
</svg>
