<svg width="100" height="100" viewBox="0 0 100 100" fill="none" xmlns="http://www.w3.org/2000/svg">
<g clip-path="url(#clip0_25_161)">
<path d="M100 0H0V100H100V0Z" fill="white"/>
<path d="M96 4H4V96H96V4Z" fill="#012ED4"/>
<path d="M31 21.7C26.9 22.9 24.8 27 21 28.5C20.1 28.9 20.4 29.7 21 30.3C21.8 30.9 22.8 31.2 23.8 31.1C25.9 31.2 29.1 30 29.8 32.4C30.6 35.3 30 38.4 28.1 40.8C26.7 42.5 25.3 44.2 25.5 46.7C25.7 48.4 24 48 23 48.2C18.8 49.4 17.6 53.2 20.4 56.7C23.2 60.2 26.2 63.7 29.2 67.2C30.1 68.4 31.4 69.3 32.8 69.6C32.3 65.4 27.8 64.2 27 60.3C29.9 61.3 30.4 65.2 34 65.7C33.5 61.5 28.2 60.4 28.4 56.3C31.4 56.8 34.2 58.5 35.9 61.1C40.7 67.5 48.3 69.3 55.5 71.4C57.3 71.9 58.5 72.2 59 74.3C59.7 77.2 62.4 78.6 65 79.4C71.7 81.3 77 84.7 80.7 90.8C81.9 92.8 83.9 94.6 86.9 93.8C85.9 90.3 82.2 89.9 80.3 87.7C78.1 85.5 76.5 82.7 75.7 79.7C79.9 82.9 80.8 89 87.2 89.5C86.2 87.5 85.5 86.2 83.9 85.3C80.4 83.4 78.3 80.2 76.9 76.6C76.1 74.7 75.4 73.1 72.9 72.8C70.9 72.5 70.4 71 71.2 69.2C72 67.4 72.8 65.9 73.6 64.3C75.6 64.9 75.9 68.9 79.4 67.1C75.1 64.2 72.2 59.9 66.4 59.2C56.6 58.1 50 52.4 43.4 44.9C38.4 39.1 39.4 32.5 36.7 26.7C36.2 25.7 37 25.6 37.7 25.3C39.4 24.7 40 23.2 40.2 21.5C40 21.4 39.7 21.4 39.5 21.5C38.1 22 36.5 23.9 35.3 22.1C34.7 21.2 36.5 19.5 37.6 18.6C41.4 15.6 43.6 11.6 44.9 7C42 10.4 40.4 14.9 35.8 16.7C34.3 18.3 32 19.4 31 21.7Z" fill="white"/>
<path d="M31 21.7004C32 19.4004 34.3 18.3004 36 16.6004C37.3 13.8004 38.6 11.1004 39 7.90039C37.1 12.5004 34 16.2004 30.5 19.6004C29.3 20.7004 30 21.2004 31 21.7004Z" fill="white"/>
<path d="M27.3949 29.277C30.349 27.2376 31.9807 24.4791 31.0395 23.1156C30.0982 21.7522 26.9404 22.3002 23.9863 24.3396C21.0322 26.379 19.4005 29.1375 20.3418 30.5009C21.283 31.8644 24.4408 31.3164 27.3949 29.277Z" fill="white"/>
</g>
<defs>
<clipPath id="clip0_25_161">
<rect width="100" height="100" fill="white"/>
</clipPath>
</defs>
</svg>
