<svg id="Слой_1" data-name="Слой 1" xmlns="http://www.w3.org/2000/svg" viewBox="0 0 1024 1024"><defs><style>.cls-1{fill:#fff;}.cls-2{fill:#012ed4;}</style></defs><g id="Layer_1_copy_5" data-name="Layer 1 copy 5"><rect class="cls-1" width="100" height="100"/><rect class="cls-2" x="4" y="4" width="92" height="92"/><path class="cls-1" d="M31,21.7C26.91,22.88,24.83,27,21,28.52c-.93.38-.6,1.21,0,1.78a4,4,0,0,0,2.77.76c2.12.12,5.33-1.14,6,1.25a9.58,9.58,0,0,1-1.66,8.4c-1.37,1.73-2.83,3.37-2.59,5.9.16,1.68-1.54,1.26-2.46,1.53-4.2,1.2-5.43,5-2.6,8.49s5.84,7,8.78,10.49a6.56,6.56,0,0,0,3.59,2.44c-.45-4.18-5-5.44-5.78-9.26,2.89,1,3.43,4.87,7,5.41-.47-4.21-5.77-5.25-5.64-9.44a11.27,11.27,0,0,1,7.49,4.78c4.75,6.38,12.37,8.21,19.58,10.33,1.78.53,3,.8,3.55,2.94.7,2.94,3.41,4.33,5.95,5.06,6.69,1.92,12,5.35,15.74,11.39,1.2,2,3.23,3.82,6.21,3-1-3.49-4.65-3.89-6.64-6.11a18.22,18.22,0,0,1-4.63-8c4.2,3.2,5.09,9.31,11.52,9.8-1-2-1.7-3.33-3.32-4.2-3.53-1.89-5.57-5.12-7-8.69-.78-1.95-1.54-3.47-4-3.79-2-.27-2.51-1.81-1.72-3.61s1.61-3.27,2.44-4.93c2,.62,2.29,4.63,5.85,2.79-4.32-2.93-7.21-7.23-13-7.91C56.68,58,50,52.32,43.44,44.77c-5-5.8-4-12.36-6.67-18.19-.46-1,.28-1.11,1-1.4,1.67-.64,2.25-2.13,2.53-3.79a2,2,0,0,0-.72-.05c-1.4.48-3,2.38-4.15.62-.6-.92,1.23-2.6,2.35-3.46,3.85-3,6-7,7.34-11.58-2.86,3.41-4.55,7.94-9.15,9.66C34.34,18.32,32,19.4,31,21.7Z"/><path class="cls-1" d="M31,21.7C32,19.4,34.34,18.32,36,16.62c1.26-2.79,2.6-5.54,3-8.74-1.89,4.61-5,8.29-8.48,11.68C29.34,20.71,30,21.16,31,21.7Z"/><ellipse class="cls-1" cx="25.71" cy="26.81" rx="6.51" ry="3.03" transform="translate(-10.68 19.36) rotate(-34.62)"/></g></svg>
